<?xml version="1.0" encoding="utf-8"?>
<!-- Generator: Adobe Illustrator 21.0.2, SVG Export Plug-In . SVG Version: 6.00 Build 0)  -->
<svg version="1.1" id="Layer_1" xmlns="http://www.w3.org/2000/svg" xmlns:xlink="http://www.w3.org/1999/xlink" x="0px" y="0px"
	 viewBox="0 0 3165.7 1135.1" style="enable-background:new 0 0 3165.7 1135.1;" xml:space="preserve">
<style type="text/css">
	.st0{fill:#FFFFFF;}
</style>
<g id="SvgjsG1078" transform="matrix(1,0,0,1,0,0)">
</g>
<g id="SvgjsG1079" transform="matrix(1.5,0,0,1.5,15,-19.5)">
	<path class="st0" d="M451.2,349.9c0-9.1,7.4-16.6,16.6-16.6h455.7V167.7c0-9.1-7.4-16.6-16.6-16.6H144.7c-9.1,0-16.6,7.4-16.6,16.6
		v414.3c0,9.1,7.4,16.6,16.6,16.6h306.6V349.9z"/>
	<path class="st0" d="M819.9,416.2c0-9.1,7.4-16.6,16.6-16.6h103.1v-39.9c0-5.4-4.4-9.8-9.8-9.8H478.1c-5.4,0-9.8,4.4-9.8,9.8v245.5
		c0,5.4,4.4,9.8,9.8,9.8h341.8V416.2z"/>
	<path class="st0" d="M956.6,623.4c0,4.6-3.7,8.3-8.3,8.3H844.8c-4.6,0-8.3-3.7-8.3-8.3V424.5c0-4.6,3.7-8.3,8.3-8.3h103.6
		c4.6,0,8.3,3.7,8.3,8.3V623.4z"/>
</g>
<g id="SvgjsG1080" transform="matrix(2.010600930304345,0,0,2.010600930304345,178.87406311471247,10.950101196482287)">
	<path class="st0" d="M766.4,201.9c-4.6,14.8-9.3,28.5-14.1,41.1c-4.8,12.6-9.5,24.9-14.3,36.8H722c-5.9-16.9-11-34.7-15.5-53.5
		c-4.5-18.8-8.6-39.2-12.5-61.3h16.9c1.5,8.6,3.1,17.2,4.8,25.9c1.7,8.6,3.4,17,5.1,25.1s3.5,15.9,5.3,23.3
		c1.8,7.4,3.6,14.3,5.5,20.5c4.4-11.6,9.1-24.3,14.1-38.2c5-13.9,9.6-28.2,13.9-43h13.9c4.3,14.8,9,29.1,14.1,43
		c5.1,13.9,9.8,26.6,14.3,38.2c1.8-6.2,3.5-13,5.3-20.4c1.8-7.4,3.5-15.2,5.2-23.3s3.4-16.5,5.1-25.2c1.7-8.7,3.3-17.3,4.8-25.9
		h16.4c-4,22.1-8.2,42.5-12.7,61.3c-4.5,18.8-9.6,36.6-15.3,53.5h-16.1c-4.9-11.9-9.6-24.2-14.3-36.8
		C775.7,230.4,771.1,216.7,766.4,201.9L766.4,201.9z M851.8,236.8c0-7.6,1.1-14.3,3.3-20c2.2-5.7,5.1-10.4,8.8-14.2
		c3.6-3.8,7.8-6.6,12.6-8.5c4.8-1.9,9.6-2.8,14.6-2.8c11.6,0,20.5,3.6,26.7,10.9c6.2,7.2,9.3,18.3,9.3,33.1v2.6c0,0-0.1,1-0.2,2.9
		h-59c0.7,8.9,3.3,15.7,7.8,20.4c4.5,4.6,11.6,7,21.2,7c5.4,0,10-0.5,13.7-1.4s6.5-1.9,8.4-2.7l2.2,12.9c-1.9,1-5.2,2-9.9,3.1
		c-4.7,1.1-10,1.7-16,1.7c-7.5,0-14-1.1-19.5-3.4c-5.5-2.3-10-5.4-13.5-9.4c-3.5-4-6.2-8.7-7.9-14.2
		C852.6,249.3,851.8,243.3,851.8,236.8L851.8,236.8z M910.9,228.4c0.1-7-1.6-12.7-5.2-17.2c-3.6-4.5-8.5-6.7-14.8-6.7
		c-3.5,0-6.7,0.7-9.4,2.1c-2.7,1.4-5,3.2-6.9,5.4c-1.9,2.2-3.3,4.8-4.4,7.6c-1,2.9-1.7,5.8-2.1,8.8L910.9,228.4L910.9,228.4z
		 M964.6,197.4c1.9-1.2,4.7-2.5,8.5-3.8c3.8-1.3,8.2-2,13.2-2c6.2,0,11.7,1.1,16.5,3.3c4.8,2.2,8.9,5.3,12.2,9.3
		c3.3,4,5.8,8.7,7.5,14.3c1.7,5.5,2.6,11.6,2.6,18.2c0,7-1,13.2-3.1,18.8c-2,5.6-4.9,10.3-8.7,14.2c-3.8,3.9-8.3,6.8-13.6,8.9
		c-5.3,2.1-11.3,3.1-17.9,3.1c-7.2,0-13.5-0.5-19.1-1.5c-5.5-1-10.1-2-13.6-3V153.8l15.4-2.7L964.6,197.4L964.6,197.4z M964.6,266.3
		c1.5,0.4,3.7,0.9,6.5,1.2s6.3,0.6,10.5,0.6c8.3,0,14.9-2.7,19.9-8.2c5-5.5,7.5-13.2,7.5-23.3c0-4.4-0.4-8.6-1.3-12.4
		c-0.9-3.9-2.3-7.2-4.3-10c-2-2.8-4.6-5-7.7-6.6c-3.1-1.6-6.9-2.4-11.4-2.4c-4.2,0-8.1,0.7-11.6,2.2c-3.5,1.4-6.2,2.9-8.1,4.5
		L964.6,266.3L964.6,266.3z M1162.8,279.7c-1.9-5-3.6-9.9-5.3-14.7c-1.7-4.8-3.4-9.7-5.1-14.7h-52l-10.4,29.3h-16.7
		c4.4-12.2,8.6-23.4,12.4-33.7s7.7-20.1,11.4-29.4s7.4-18.1,11-26.6s7.5-16.8,11.4-25.1h14.7c4,8.3,7.8,16.7,11.4,25.1
		c3.6,8.5,7.3,17.3,11,26.6c3.7,9.3,7.5,19.1,11.4,29.4c3.9,10.3,8,21.6,12.4,33.7H1162.8L1162.8,279.7z M1147.7,237.2
		c-3.5-9.6-7-18.9-10.5-27.9c-3.5-9-7.1-17.6-10.9-25.9c-3.9,8.3-7.5,16.9-11,25.9c-3.5,9-6.9,18.3-10.4,27.9H1147.7L1147.7,237.2z
		 M1254.8,236.8c0-10.1-2.5-17.8-7.5-23.2c-5-5.4-11.6-8.1-19.9-8.1c-4.6,0-8.3,0.2-10.9,0.5s-4.7,0.7-6.2,1.2v54.4
		c1.9,1.5,4.6,3,8.1,4.5c3.5,1.4,7.4,2.2,11.6,2.2c4.4,0,8.2-0.8,11.4-2.4s5.7-3.8,7.7-6.6c2-2.8,3.4-6.1,4.3-9.9
		C1254.3,245.4,1254.8,241.2,1254.8,236.8L1254.8,236.8z M1270.8,236.8c0,6.5-0.9,12.5-2.6,18.1c-1.7,5.5-4.2,10.3-7.5,14.3
		s-7.4,7.1-12.2,9.3c-4.8,2.2-10.3,3.3-16.5,3.3c-5,0-9.4-0.7-13.2-2c-3.8-1.3-6.7-2.6-8.5-3.8v34.5h-15.4V196.2
		c3.6-0.9,8.2-1.9,13.7-2.9s11.8-1.6,19-1.6c6.6,0,12.6,1,17.9,3.1c5.3,2.1,9.8,5.1,13.6,8.9c3.8,3.9,6.7,8.6,8.7,14.2
		C1269.8,223.6,1270.8,229.9,1270.8,236.8L1270.8,236.8z M1352.4,236.8c0-10.1-2.5-17.8-7.5-23.2c-5-5.4-11.6-8.1-19.9-8.1
		c-4.6,0-8.3,0.2-10.9,0.5c-2.6,0.3-4.7,0.7-6.2,1.2v54.4c1.9,1.5,4.6,3,8.1,4.5c3.5,1.4,7.4,2.2,11.6,2.2c4.4,0,8.2-0.8,11.4-2.4
		s5.7-3.8,7.7-6.6c2-2.8,3.4-6.1,4.3-9.9C1351.9,245.4,1352.4,241.2,1352.4,236.8L1352.4,236.8z M1368.4,236.8
		c0,6.5-0.9,12.5-2.6,18.1c-1.7,5.5-4.2,10.3-7.5,14.3c-3.3,4-7.4,7.1-12.2,9.3c-4.8,2.2-10.3,3.3-16.5,3.3c-5,0-9.4-0.7-13.2-2
		s-6.7-2.6-8.5-3.8v34.5h-15.4V196.2c3.6-0.9,8.2-1.9,13.7-2.9s11.8-1.6,19-1.6c6.6,0,12.6,1,17.9,3.1c5.3,2.1,9.8,5.1,13.6,8.9
		s6.7,8.6,8.7,14.2C1367.4,223.6,1368.4,229.9,1368.4,236.8L1368.4,236.8z M1410.2,268.6c6.3,0,11-0.8,14-2.5c3-1.7,4.6-4.3,4.6-8
		c0-3.8-1.5-6.7-4.5-8.9c-3-2.2-7.9-4.7-14.7-7.5c-3.3-1.3-6.5-2.7-9.5-4.1c-3-1.4-5.7-3-7.9-4.9c-2.2-1.9-4-4.1-5.3-6.8
		s-2-5.9-2-9.8c0-7.6,2.8-13.7,8.5-18.1s13.3-6.7,23-6.7c2.4,0,4.9,0.1,7.3,0.4c2.4,0.3,4.7,0.6,6.8,1c2.1,0.4,3.9,0.8,5.6,1.2
		c1.6,0.4,2.8,0.8,3.7,1.2l-2.8,13.3c-1.7-0.9-4.3-1.8-7.8-2.7c-3.5-0.9-7.8-1.4-12.8-1.4c-4.3,0-8.1,0.9-11.3,2.6s-4.8,4.4-4.8,8
		c0,1.9,0.4,3.5,1.1,5c0.7,1.4,1.8,2.7,3.3,3.9c1.5,1.2,3.3,2.2,5.6,3.2c2.2,1,4.9,2,8,3.1c4.1,1.5,7.7,3.1,10.9,4.6
		c3.2,1.5,5.9,3.2,8.2,5.2c2.3,2,4,4.4,5.2,7.2c1.2,2.8,1.8,6.3,1.8,10.4c0,8-3,14-8.9,18.1s-14.3,6.1-25.3,6.1
		c-7.6,0-13.6-0.6-17.9-1.9c-4.3-1.3-7.2-2.2-8.8-2.9l2.8-13.3c1.8,0.7,4.6,1.7,8.5,3C1398.7,268,1403.8,268.6,1410.2,268.6
		L1410.2,268.6z"/>
</g>
</svg>
